HIERARCHY
ROOT Hips
{
	OFFSET 0.000000 0.000000 0.000000
	CHANNELS 6 Xposition Yposition Zposition Zrotation Yrotation Xrotation 
	JOINT LHipJoint
	{
		OFFSET 0.000000 0.000000 0.000000
		CHANNELS 3 Zrotation Yrotation Xrotation
		JOINT LeftUpLeg
		{
			OFFSET 1.363060 -1.794630 0.839290
			CHANNELS 3 Zrotation Yrotation Xrotation
			JOINT LeftLeg
			{
				OFFSET 2.448110 -6.726130 0.000000
				CHANNELS 3 Zrotation Yrotation Xrotation
				JOINT LeftFoot
				{
					OFFSET 2.562200 -7.039590 0.000000
					CHANNELS 3 Zrotation Yrotation Xrotation
					JOINT LeftToeBase
					{
						OFFSET 0.157640 -0.433110 2.322550
						CHANNELS 3 Zrotation Yrotation Xrotation
						End Site
						{
							OFFSET 0.000000 0.000000 0.000000
						}
					}
				}
			}
		}
	}
	JOINT RHipJoint
	{
		OFFSET 0.000000 0.000000 0.000000
		CHANNELS 3 Zrotation Yrotation Xrotation
		JOINT RightUpLeg
		{
			OFFSET -1.305520 -1.794630 0.839290
			CHANNELS 3 Zrotation Yrotation Xrotation
			JOINT RightLeg
			{
				OFFSET -2.542530 -6.985550 0.000000
				CHANNELS 3 Zrotation Yrotation Xrotation
				JOINT RightFoot
				{
					OFFSET -2.568260 -7.056230 0.000000
					CHANNELS 3 Zrotation Yrotation Xrotation
					JOINT RightToeBase
					{
						OFFSET -0.164730 -0.452590 2.363150
						CHANNELS 3 Zrotation Yrotation Xrotation
						End Site
						{
							OFFSET 0.000000 0.000000 0.000000
						}
					}
				}
			}
		}
	}
	JOINT LowerBack
	{
		OFFSET 0.000000 0.000000 0.000000
		CHANNELS 3 Zrotation Yrotation Xrotation
		JOINT Spine
		{
			OFFSET 0.028270 2.035590 -0.193380
			CHANNELS 3 Zrotation Yrotation Xrotation
			JOINT Spine1
			{
				OFFSET 0.056720 2.048850 -0.042750
				CHANNELS 3 Zrotation Yrotation Xrotation
				JOINT Neck
				{
					OFFSET 0.000000 0.000000 0.000000
					CHANNELS 3 Zrotation Yrotation Xrotation
					JOINT Neck1
					{
						OFFSET -0.054170 1.746240 0.172020
						CHANNELS 3 Zrotation Yrotation Xrotation
						JOINT Head
						{
							OFFSET 0.104070 1.761360 -0.123970
							CHANNELS 3 Zrotation Yrotation Xrotation
							End Site
							{
								OFFSET 0.000000 0.000000 0.000000
							}
						}
					}
				}
				JOINT LeftShoulder
				{
					OFFSET 0.000000 0.000000 0.000000
					CHANNELS 3 Zrotation Yrotation Xrotation
					JOINT LeftArm
					{
						OFFSET 3.362410 1.200890 -0.311210
						CHANNELS 3 Zrotation Yrotation Xrotation
						JOINT LeftForeArm
						{
							OFFSET 4.983000 -0.000000 -0.000000
							CHANNELS 3 Zrotation Yrotation Xrotation
							JOINT LeftHand
							{
								OFFSET 3.483560 -0.000000 -0.000000
								CHANNELS 3 Zrotation Yrotation Xrotation
								JOINT LeftFingerBase
								{
									OFFSET 0.000000 0.000000 0.000000
									CHANNELS 3 Zrotation Yrotation Xrotation
									JOINT LeftHandIndex1
									{
										OFFSET 0.715260 -0.000000 -0.000000
										CHANNELS 3 Zrotation Yrotation Xrotation
										End Site
										{
											OFFSET 0.000000 0.000000 0.000000
										}
									}
								}
								JOINT LThumb
								{
									OFFSET 0.000000 0.000000 0.000000
									CHANNELS 3 Zrotation Yrotation Xrotation
									End Site
									{
										OFFSET 0.000000 0.000000 0.000000
									}
								}
							}
						}
					}
				}
				JOINT RightShoulder
				{
					OFFSET 0.000000 0.000000 0.000000
					CHANNELS 3 Zrotation Yrotation Xrotation
					JOINT RightArm
					{
						OFFSET -3.136600 1.374050 -0.404650
						CHANNELS 3 Zrotation Yrotation Xrotation
						JOINT RightForeArm
						{
							OFFSET -5.241900 -0.000000 -0.000000
							CHANNELS 3 Zrotation Yrotation Xrotation
							JOINT RightHand
							{
								OFFSET -3.444170 -0.000000 -0.000000
								CHANNELS 3 Zrotation Yrotation Xrotation
								JOINT RightFingerBase
								{
									OFFSET 0.000000 0.000000 0.000000
									CHANNELS 3 Zrotation Yrotation Xrotation
									JOINT RightHandIndex1
									{
										OFFSET -0.622530 -0.000000 -0.000000
										CHANNELS 3 Zrotation Yrotation Xrotation
										End Site
										{
											OFFSET 0.000000 0.000000 0.000000
										}
									}
								}
								JOINT RThumb
								{
									OFFSET 0.000000 0.000000 0.000000
									CHANNELS 3 Zrotation Yrotation Xrotation
									End Site
									{
										OFFSET 0.000000 0.000000 0.000000
									}
								}
							}
						}
					}
				}
			}
		}
	}
}
MOTION
Frames: 11
Frame Time: 0.016667
0.041943 16.755932 -0.164639 0.340940 2.805294 9.044017 -7.877703 9.955673 -5.647539 -15.692125 -3.743553 -11.369945 -18.781152 -2.259277 -11.148216 1.163828 10.437822 17.785996 0.000000 0.000000 0.000000 6.495918 -17.395470 4.708454 18.740902 7.429429 -4.484546 3.704216 -12.074673 29.749826 4.923263 2.330741 -21.634960 0.000000 0.000000 0.000000 2.512472 3.117283 6.355738 -4.615620 2.230788 -8.035608 3.354460 2.333080 -9.694788 5.677654 -2.296200 -8.553645 -3.113200 -0.508646 8.018575 0.000000 0.000000 0.000000 -6.779016 14.788083 11.622916 -65.309859 1.594032 -0.943617 18.900253 -15.984871 0.275808 -0.564981 -3.378615 0.138017 -0.571148 -3.382468 0.000000 0.000000 0.000000 0.000000 0.000000 0.000000 0.000000 4.812561 -10.597037 9.289397 62.195212 7.433046 2.939541 8.511824 65.091289 0.042404 -0.591398 -0.256978 0.021374 -0.587617 -0.256480 0.000000 0.000000 0.000000 0.000000 0.000000 0.000000 0.000000 
0.055685 16.825138 -0.007495 0.469551 3.206938 9.371699 -8.831679 9.385814 -5.129620 -14.329331 -3.904960 -11.907092 -19.174101 -2.191405 -10.854582 1.165520 10.222878 17.333672 0.000000 0.000000 0.000000 7.781204 -17.041192 4.879921 18.285035 7.860112 -5.431060 1.284370 -11.978518 30.986107 5.161098 1.273124 -19.324800 0.000000 0.000000 0.000000 2.429003 3.074197 5.659487 -4.683179 2.108759 -10.244060 2.911190 2.097428 -8.300992 5.683541 -2.372946 -8.494036 -2.465797 -0.514379 8.490573 0.000000 0.000000 0.000000 -8.000881 13.736467 11.952245 -63.770367 2.215024 -1.034431 21.726120 -15.506064 0.256025 -0.750749 -2.799948 0.128123 -0.756252 -2.803754 0.000000 0.000000 0.000000 0.000000 0.000000 0.000000 0.000000 5.616466 -9.177874 10.303775 63.669138 7.812840 0.361189 4.841633 65.321090 0.051724 -0.393417 -0.421790 0.026053 -0.389215 -0.421042 0.000000 0.000000 0.000000 0.000000 0.000000 0.000000 0.000000 
0.071692 16.896164 0.149078 0.578078 3.725421 9.631030 -9.805982 8.781556 -4.580647 -12.900955 -4.042624 -12.403997 -19.587234 -2.122674 -10.527650 1.166672 10.029928 16.997223 0.000000 0.000000 0.000000 9.119542 -16.655819 5.149064 17.682117 8.283870 -6.391578 -0.873851 -11.940045 32.066940 5.488001 0.000522 -16.806810 0.000000 0.000000 0.000000 2.302221 3.023889 4.772056 -5.077791 1.945362 -11.669173 2.814161 1.788784 -7.393959 6.185736 -2.594872 -8.618565 -2.172408 -0.530068 8.939393 0.000000 0.000000 0.000000 -9.082699 12.949019 12.248214 -62.218912 2.773929 -1.116631 24.037675 -15.046424 0.235318 -0.934660 -2.295265 0.117765 -0.939448 -2.298977 0.000000 0.000000 0.000000 0.000000 0.000000 0.000000 0.000000 6.083657 -7.979691 11.554490 66.956398 8.844913 -3.230377 0.107766 65.108109 0.088188 0.026599 -0.492220 0.044330 0.032074 -0.490869 0.000000 0.000000 0.000000 0.000000 0.000000 0.000000 0.000000 
0.020102 16.906863 0.296222 1.161485 4.833186 9.581203 -8.944649 8.698610 -5.061020 -13.975425 -4.119468 -11.662141 -20.265416 -1.624417 -8.838551 1.157771 9.285903 15.948556 0.000000 0.000000 0.000000 10.470798 -15.683095 5.317761 15.638350 8.621916 -7.631517 -0.523099 -13.398559 33.967473 6.647314 -2.210199 -15.200593 0.000000 0.000000 0.000000 0.784418 2.558524 5.006405 -4.797818 1.623687 -11.799890 3.509543 1.298551 -7.340074 6.749390 -2.860702 -9.264103 -2.542858 -0.553854 9.115142 0.000000 0.000000 0.000000 -8.501832 12.501923 12.515514 -63.272949 2.656112 -1.734217 26.533300 -17.208539 0.243236 -0.800441 -2.307063 0.121742 -0.805618 -2.311129 0.000000 0.000000 0.000000 0.000000 0.000000 0.000000 0.000000 5.516218 -7.526380 11.410604 68.828319 10.004672 -3.411012 -0.329451 64.964007 0.110061 0.188544 -0.568343 0.055312 0.195081 -0.566686 0.000000 0.000000 0.000000 0.000000 0.000000 0.000000 0.000000 
0.018542 16.918140 0.442066 1.570713 5.444680 9.484305 -8.631049 8.476466 -5.417931 -14.402534 -4.047180 -11.160990 -20.790273 -0.975582 -7.285230 1.042337 8.605985 14.375241 0.000000 0.000000 0.000000 11.015438 -15.028663 5.412468 14.362284 8.996955 -8.401768 -0.202684 -14.499316 35.755056 7.639822 -4.424754 -12.906802 0.000000 0.000000 0.000000 0.363071 2.342131 5.217002 -5.150858 1.366779 -11.832499 3.930430 0.962730 -7.256226 7.252956 -3.114063 -9.878124 -2.911182 -0.579089 9.283171 0.000000 0.000000 0.000000 -8.045368 12.121450 12.756174 -64.231456 2.543820 -2.409029 29.010614 -19.434181 0.249643 -0.655053 -2.317453 0.124965 -0.660603 -2.321861 0.000000 0.000000 0.000000 0.000000 0.000000 0.000000 0.000000 4.900601 -7.019075 11.290904 70.651767 11.202195 -3.567418 -0.778735 64.708551 0.130664 0.341599 -0.632971 0.065657 0.349146 -0.631009 0.000000 0.000000 0.000000 0.000000 0.000000 0.000000 0.000000 
0.032915 16.961967 0.586392 1.834388 5.866596 9.676085 -9.260524 7.889467 -5.442652 -13.523126 -4.069969 -11.460880 -21.289059 -0.327531 -5.974531 0.938458 8.164378 13.083860 0.000000 0.000000 0.000000 11.989129 -14.230395 5.754579 12.293600 9.198807 -9.614638 0.780482 -15.589649 36.734353 8.299646 -6.495501 -10.335498 0.000000 0.000000 0.000000 0.314899 2.255236 5.162587 -5.672301 1.159682 -11.841093 4.158729 0.766028 -7.446915 7.644255 -3.238058 -10.177693 -3.225542 -0.588896 9.413362 0.000000 0.000000 0.000000 -8.027849 12.368735 12.707491 -63.851151 2.606269 -2.575964 28.806289 -20.224262 0.235275 -0.635042 -2.153785 0.117775 -0.640231 -2.157967 -0.000000 0.000000 0.000000 0.000000 0.000000 0.000000 0.000000 4.663296 -7.225125 11.680782 71.537689 10.895897 -3.712379 -0.714827 65.209831 0.145765 0.392564 -0.526723 0.073223 0.400638 -0.524590 0.000000 0.000000 0.000000 0.000000 0.000000 0.000000 0.000000 
0.049197 17.006355 0.729241 2.060748 6.254187 9.854438 -9.901254 7.323125 -5.432961 -12.591185 -4.089016 -11.792358 -21.776813 0.324700 -4.681146 0.844030 7.774029 11.929081 0.000000 0.000000 0.000000 12.889653 -13.464308 6.034211 10.375915 9.258601 -10.634237 1.701302 -16.570687 37.510209 8.949183 -8.610051 -7.632756 0.000000 0.000000 0.000000 0.313920 2.177980 5.118921 -6.215538 0.959767 -11.844740 4.395637 0.581516 -7.642298 8.038223 -3.362679 -10.474073 -3.544390 -0.598474 9.542569 0.000000 0.000000 0.000000 -8.012462 12.626321 12.650241 -63.453220 2.666463 -2.735301 28.550780 -20.979757 0.220849 -0.616146 -1.991580 0.110555 -0.620979 -1.995530 -0.000000 0.000000 0.000000 0.000000 0.000000 0.000000 0.000000 4.436542 -7.425034 12.081260 72.405149 10.562727 -3.856994 -0.655418 65.717737 0.161977 0.445955 -0.408039 0.081348 0.454615 -0.405722 0.000000 0.000000 0.000000 0.000000 0.000000 0.000000 0.000000 
0.066872 17.049177 0.880143 2.360092 6.580581 10.025446 -10.300929 7.099695 -5.419766 -12.292793 -4.254849 -12.087467 -21.840573 0.938456 -3.198702 0.729134 7.247015 10.835184 0.000000 0.000000 0.000000 13.752543 -12.921071 6.388841 8.748329 9.324053 -11.610503 1.909944 -17.225214 38.266374 9.486581 -10.507698 -4.953648 0.000000 0.000000 0.000000 0.155539 2.056212 4.904941 -6.472322 0.781848 -11.681563 4.501950 0.391159 -7.653198 8.209085 -3.429496 -10.619503 -3.632849 -0.600605 9.609994 0.000000 0.000000 0.000000 -7.981780 12.651286 12.587034 -63.405299 2.566088 -2.782042 28.441476 -21.105144 0.217085 -0.600806 -1.955179 0.108672 -0.605552 -1.959071 -0.000000 0.000000 0.000000 0.000000 0.000000 0.000000 0.000000 4.293259 -7.501176 12.576495 73.230174 10.115426 -4.115866 -0.779735 66.428066 0.180801 0.495012 -0.231015 0.090781 0.504350 -0.228473 0.000000 0.000000 0.000000 0.000000 0.000000 0.000000 0.000000 
0.085460 17.091498 1.029488 2.629243 6.965718 10.176077 -10.703465 6.858305 -5.396299 -11.961025 -4.428886 -12.371677 -21.882303 1.536216 -1.720681 0.625632 6.751726 9.865746 0.000000 0.000000 0.000000 14.557984 -12.427543 6.709847 7.253633 9.312977 -12.456308 2.118854 -17.828148 38.877205 10.066354 -12.491148 -2.259344 0.000000 0.000000 0.000000 0.043265 1.962662 4.686184 -6.749783 0.627598 -11.520446 4.592375 0.213783 -7.512252 8.375698 -3.503552 -10.848388 -3.718581 -0.602030 9.657950 0.000000 0.000000 0.000000 -7.973695 12.519726 12.498153 -63.370862 2.396687 -2.849875 28.348802 -21.209227 0.212899 -0.584441 -1.917229 0.106577 -0.589086 -1.921055 -0.000000 0.000000 0.000000 0.000000 0.000000 0.000000 0.000000 4.165901 -7.366246 13.180193 74.076800 9.685499 -4.599916 -1.211695 67.134496 0.201334 0.541384 0.028246 0.101068 0.551421 0.031044 0.000000 0.000000 0.000000 0.000000 0.000000 0.000000 0.000000 
0.101412 17.119295 1.179610 2.895256 7.401405 10.225525 -10.846429 6.772604 -5.445819 -12.063074 -4.650023 -12.464174 -21.696981 2.113053 -0.101468 0.513722 6.092939 8.678409 0.000000 0.000000 0.000000 15.120226 -11.986798 6.901906 6.015813 9.312940 -13.124815 2.415637 -18.502634 39.712532 10.897897 -14.870238 0.548568 0.000000 0.000000 0.000000 -0.096073 1.845102 4.575063 -6.971406 0.456218 -11.341870 4.663459 0.018445 -7.243038 8.574275 -3.532061 -11.194871 -3.806667 -0.598170 9.672285 0.000000 0.000000 0.000000 -7.809849 12.440354 12.481899 -63.531433 2.182419 -3.324383 27.982919 -23.011894 0.201180 -0.504511 -1.831733 0.100713 -0.508989 -1.835337 -0.000000 0.000000 0.000000 0.000000 0.000000 0.000000 0.000000 3.824044 -7.336832 13.844935 74.935175 9.198451 -5.221047 -1.813930 67.752188 0.221946 0.574124 0.384173 0.111386 0.584786 0.387213 0.000000 0.000000 0.000000 0.000000 0.000000 0.000000 0.000000 
0.117040 17.145893 1.327764 3.138289 7.814213 10.262707 -10.984914 6.700528 -5.477360 -12.150681 -4.876893 -12.565131 -21.479375 2.673257 1.490022 0.413596 5.481394 7.595264 0.000000 0.000000 0.000000 15.634684 -11.564443 7.054233 4.878748 9.245470 -13.678955 2.704213 -19.111240 40.421454 11.746810 -17.325538 3.318739 0.000000 0.000000 0.000000 -0.214485 1.732433 4.472518 -7.190166 0.291511 -11.161476 4.728536 -0.171739 -6.963614 8.775401 -3.559961 -11.542302 -3.894369 -0.593861 9.681491 0.000000 0.000000 0.000000 -7.655737 12.371832 12.458189 -63.660748 1.963743 -3.810040 27.541789 -24.857898 0.188598 -0.424249 -1.740096 0.094418 -0.428531 -1.743463 0.000000 0.000000 0.000000 0.000000 0.000000 0.000000 0.000000 3.484311 -7.290918 14.518494 75.821721 8.730724 -5.854015 -2.546341 68.284293 0.245469 0.603312 0.811799 0.123163 0.614738 0.815122 0.000000 0.000000 0.000000 0.000000 0.000000 0.000000 0.000000 
